<?xml version="1.0" encoding="UTF-8" standalone="no"?><svg xmlns="http://www.w3.org/2000/svg" xmlns:xlink="http://www.w3.org/1999/xlink" contentScriptType="application/ecmascript" contentStyleType="text/css" height="126px" preserveAspectRatio="none" style="width:189px;height:126px;" version="1.1" viewBox="0 0 189 126" width="189px" zoomAndPan="magnify"><defs/><g><text fill="#000000" font-family="Serif" font-size="10" lengthAdjust="spacingAndGlyphs" textLength="10" x="3" y="35.5">11</text><text fill="#000000" font-family="Serif" font-size="10" lengthAdjust="spacingAndGlyphs" textLength="9" x="3.5" y="23.5">Fr</text><text fill="#000000" font-family="Serif" font-size="12" font-weight="bold" lengthAdjust="spacingAndGlyphs" textLength="60" x="5" y="9">OCTOBER</text><line style="stroke: #C0C0C0; stroke-width: 1.0;" x1="0" x2="0" y1="0" y2="16"/><line style="stroke: #C0C0C0; stroke-width: 1.0;" x1="0" x2="0" y1="16" y2="124"/><text fill="#000000" font-family="Serif" font-size="10" lengthAdjust="spacingAndGlyphs" textLength="10" x="19" y="35.5">12</text><text fill="#000000" font-family="Serif" font-size="10" lengthAdjust="spacingAndGlyphs" textLength="10" x="19" y="23.5">Sa</text><line style="stroke: #C0C0C0; stroke-width: 1.0;" x1="16" x2="16" y1="16" y2="124"/><text fill="#000000" font-family="Serif" font-size="10" lengthAdjust="spacingAndGlyphs" textLength="10" x="35" y="35.5">13</text><text fill="#000000" font-family="Serif" font-size="10" lengthAdjust="spacingAndGlyphs" textLength="11" x="34.5" y="23.5">Su</text><line style="stroke: #C0C0C0; stroke-width: 1.0;" x1="32" x2="32" y1="16" y2="124"/><text fill="#000000" font-family="Serif" font-size="10" lengthAdjust="spacingAndGlyphs" textLength="10" x="51" y="35.5">14</text><text fill="#000000" font-family="Serif" font-size="10" lengthAdjust="spacingAndGlyphs" textLength="14" x="49" y="23.5">Mo</text><line style="stroke: #C0C0C0; stroke-width: 1.0;" x1="48" x2="48" y1="16" y2="124"/><text fill="#000000" font-family="Serif" font-size="10" lengthAdjust="spacingAndGlyphs" textLength="10" x="67" y="35.5">15</text><text fill="#000000" font-family="Serif" font-size="10" lengthAdjust="spacingAndGlyphs" textLength="11" x="66.5" y="23.5">Tu</text><line style="stroke: #C0C0C0; stroke-width: 1.0;" x1="64" x2="64" y1="16" y2="124"/><text fill="#000000" font-family="Serif" font-size="10" lengthAdjust="spacingAndGlyphs" textLength="10" x="83" y="35.5">16</text><text fill="#000000" font-family="Serif" font-size="10" lengthAdjust="spacingAndGlyphs" textLength="13" x="81.5" y="23.5">We</text><line style="stroke: #C0C0C0; stroke-width: 1.0;" x1="80" x2="80" y1="16" y2="124"/><text fill="#000000" font-family="Serif" font-size="10" lengthAdjust="spacingAndGlyphs" textLength="10" x="99" y="35.5">17</text><text fill="#000000" font-family="Serif" font-size="10" lengthAdjust="spacingAndGlyphs" textLength="11" x="98.5" y="23.5">Th</text><line style="stroke: #C0C0C0; stroke-width: 1.0;" x1="96" x2="96" y1="16" y2="124"/><text fill="#000000" font-family="Serif" font-size="10" lengthAdjust="spacingAndGlyphs" textLength="10" x="115" y="35.5">18</text><text fill="#000000" font-family="Serif" font-size="10" lengthAdjust="spacingAndGlyphs" textLength="9" x="115.5" y="23.5">Fr</text><line style="stroke: #C0C0C0; stroke-width: 1.0;" x1="112" x2="112" y1="16" y2="124"/><text fill="#000000" font-family="Serif" font-size="10" lengthAdjust="spacingAndGlyphs" textLength="10" x="131" y="35.5">19</text><text fill="#000000" font-family="Serif" font-size="10" lengthAdjust="spacingAndGlyphs" textLength="10" x="131" y="23.5">Sa</text><line style="stroke: #C0C0C0; stroke-width: 1.0;" x1="128" x2="128" y1="16" y2="124"/><line style="stroke: #C0C0C0; stroke-width: 1.0;" x1="144" x2="144" y1="16" y2="124"/><line style="stroke: #C0C0C0; stroke-width: 1.0;" x1="0" x2="144" y1="0" y2="0"/><line style="stroke: #C0C0C0; stroke-width: 1.0;" x1="0" x2="144" y1="41" y2="41"/><rect fill="#ADFF2F" height="12" rx="4" ry="4" style="stroke: #0000FF; stroke-width: 1.0;" width="44" x="2" y="46"/><text fill="#000000" font-family="Serif" font-size="11" lengthAdjust="spacingAndGlyphs" textLength="43" x="16" y="53.75">Template</text><rect fill="#8A2BE2" height="12" rx="4" ry="4" style="stroke: #8A2BE2; stroke-width: 1.0;" width="92" x="50" y="62"/><text fill="#000000" font-family="Serif" font-size="11" lengthAdjust="spacingAndGlyphs" textLength="54" x="64" y="69.75">Grid design</text><rect fill="#00FFFF" height="12" rx="4" ry="4" style="stroke: #00FFFF; stroke-width: 1.0;" width="92" x="50" y="78"/><text fill="#000000" font-family="Serif" font-size="11" lengthAdjust="spacingAndGlyphs" textLength="61" x="64" y="85.75">Board design</text><rect fill="#FF1493" height="12" rx="4" ry="4" style="stroke: #FF1493; stroke-width: 1.0;" width="92" x="50" y="94"/><text fill="#000000" font-family="Serif" font-size="11" lengthAdjust="spacingAndGlyphs" textLength="67" x="64" y="101.75">Timer &amp; Main</text><polygon fill="#000000" points="136,110,142,116,136,122,130,116" style="stroke: #000000; stroke-width: 1.0;"/><text fill="#000000" font-family="Serif" font-size="11" lengthAdjust="spacingAndGlyphs" textLength="43" x="144" y="117.75">Release 1</text><line style="stroke: #CD0A0A; stroke-width: 1.5;" x1="40" x2="40" y1="60" y2="68"/><line style="stroke: #CD0A0A; stroke-width: 1.5;" x1="40" x2="48" y1="68" y2="68"/><polygon fill="#CD0A0A" points="44,64,44,68,44,72,48,68" style="stroke: #CD0A0A; stroke-width: 1.5;"/><line style="stroke: #CD0A0A; stroke-width: 1.5;" x1="40" x2="40" y1="60" y2="84"/><line style="stroke: #CD0A0A; stroke-width: 1.5;" x1="40" x2="48" y1="84" y2="84"/><polygon fill="#CD0A0A" points="44,80,44,84,44,88,48,84" style="stroke: #CD0A0A; stroke-width: 1.5;"/><line style="stroke: #CD0A0A; stroke-width: 1.5;" x1="40" x2="40" y1="60" y2="100"/><line style="stroke: #CD0A0A; stroke-width: 1.5;" x1="40" x2="48" y1="100" y2="100"/><polygon fill="#CD0A0A" points="44,96,44,100,44,104,48,100" style="stroke: #CD0A0A; stroke-width: 1.5;"/><!--
--></g></svg>